# xmcd
#
# Track frame offsets:
#	150
#	10967
#	25730
#	37367
#	46912
#	59592
#	73862
#	87757
#	99930
#	106900
#	117620
#	131957
#	146177
#	162580
#	187962
#
# Disc length: 4440 seconds
#
# Revision: 1
# Processed by: cddbd v1.5.2PL0 Copyright (c) Steve Scherf et al.
# Submitted via: audiograbber 1.83.01
#
DISCID=de11560f
DTITLE=Miltinho - Retratos
DYEAR=1900
DGENRE=Brasil
TTITLE0=Chorar em Colorido
TTITLE1=Boogie Woogie 
TTITLE2=Antonico
TTITLE3=A Rita
TTITLE4=Samba no Leblon
TTITLE5=Regra Tres
TTITLE6=Esperancas Perdidas
TTITLE7=Retalhos de Cetim
TTITLE8=Doralice
TTITLE9=Deixa o Carnaval Passar
TTITLE10=O Conde
TTITLE11=Nossos Momentos
TTITLE12=Modinha
TTITLE13=Ninguem E de Ninguem
TTITLE14=Data Track
EXTD=
EXTT0=
EXTT1=
EXTT2=
EXTT3=
EXTT4=
EXTT5=
EXTT6=
EXTT7=
EXTT8=
EXTT9=
EXTT10=
EXTT11=
EXTT12=
EXTT13=
EXTT14=
PLAYORDER=
